<?xml version="1.0" standalone="no"?>
<!DOCTYPE svg PUBLIC "-//W3C//DTD SVG 20010904//EN"
 "http://www.w3.org/TR/2001/REC-SVG-20010904/DTD/svg10.dtd">
<svg version="1.0" xmlns="http://www.w3.org/2000/svg"
 width="726.000000pt" height="726.000000pt" viewBox="0 0 726.000000 726.000000"
 preserveAspectRatio="xMidYMid meet">
<metadata>
Created by potrace 1.14, written by Peter Selinger 2001-2017
</metadata>
<g transform="translate(0.000000,726.000000) scale(0.100000,-0.100000)"
fill="#000000" stroke="none">
<path d="M250 4690 c-11 -7 -14 -74 -14 -336 -1 -301 0 -328 17 -338 9 -6 17
-14 17 -18 0 -10 61 -68 71 -68 5 0 9 -6 9 -14 0 -8 9 -18 20 -21 11 -4 18 -9
16 -13 -2 -4 11 -18 30 -32 18 -14 36 -32 39 -41 3 -9 16 -22 30 -29 14 -7 27
-21 31 -32 3 -10 9 -18 15 -18 10 0 109 -101 109 -112 0 -5 6 -8 14 -8 8 0 18
-9 21 -20 3 -11 13 -20 21 -20 8 0 14 -4 14 -10 0 -13 48 -59 54 -52 3 3 6 1
6 -5 0 -5 18 -30 41 -54 48 -52 73 -95 60 -104 -11 -6 -141 119 -141 135 0 6
-7 10 -16 10 -8 0 -13 4 -9 9 3 5 -4 13 -16 16 -11 4 -18 9 -15 12 3 3 -6 14
-19 25 -14 11 -23 24 -19 29 3 5 1 8 -4 7 -12 -4 -182 167 -182 183 0 7 -3 10
-6 6 -3 -3 -46 35 -94 84 -89 89 -104 100 -112 77 -2 -7 -3 -162 -3 -344 l1
-330 117 -119 c64 -65 117 -120 117 -122 0 -10 28 -31 34 -26 3 4 6 -3 6 -15
0 -12 4 -22 9 -22 14 0 24 -38 26 -95 0 -27 5 -56 9 -64 6 -10 5 -12 -3 -7 -8
6 -10 1 -5 -18 3 -14 7 -42 9 -63 3 -51 21 -52 73 -3 23 22 47 40 52 40 6 0
10 6 10 13 1 6 18 26 39 42 21 17 37 33 34 38 -2 4 0 7 5 7 9 0 690 676 692
685 0 3 1 4 3 3 6 -5 107 115 107 126 0 7 -8 19 -17 28 -10 8 -39 40 -65 69
-26 30 -72 80 -102 112 -31 33 -56 63 -56 68 0 5 -7 9 -16 9 -8 0 -13 4 -10 9
3 4 -5 13 -18 19 -19 8 -25 7 -37 -9 -7 -10 -20 -19 -28 -19 -8 0 -12 -3 -9
-6 11 -10 -71 -77 -97 -80 -20 -2 -25 2 -25 21 0 13 11 36 25 51 14 15 25 32
25 37 0 6 3 8 6 4 3 -3 19 10 36 29 36 41 45 27 -118 189 -160 158 -170 166
-200 153 -13 -6 -21 -15 -18 -19 3 -5 0 -9 -6 -9 -6 0 -30 -18 -52 -41 -22
-22 -45 -38 -51 -36 -26 8 -16 38 29 81 26 25 43 46 38 46 -5 1 2 7 15 14 14
8 26 21 27 31 1 9 0 14 -3 11 -3 -3 -18 10 -33 29 -15 19 -30 32 -34 28 -3 -3
-6 -1 -6 5 0 12 -79 92 -92 92 -4 0 -8 4 -8 10 0 5 -18 28 -40 50 -22 22 -40
38 -40 33 0 -4 -6 2 -14 12 -12 17 -13 17 -17 -6 -2 -13 -4 -61 -4 -106 0 -46
-4 -83 -8 -83 -5 0 -5 -9 -2 -20 11 -36 -12 -21 -87 53 -40 39 -76 71 -79 70
-3 -1 -12 8 -18 21 -7 12 -26 30 -42 40 -16 9 -29 21 -29 25 0 13 -25 20 -40
11z"/>
<path d="M4740 4568 c0 -5 -13 -8 -30 -8 -16 0 -30 -4 -30 -9 0 -5 -8 -8 -17
-7 -29 4 -163 -88 -163 -111 0 -7 -3 -13 -7 -13 -11 0 -43 -58 -43 -76 0 -9
-3 -13 -7 -11 -5 3 -9 -11 -11 -31 -1 -20 -5 -47 -8 -61 -3 -14 -5 -30 -5 -36
0 -22 13 -101 18 -115 4 -8 7 -17 7 -20 4 -16 51 -90 58 -90 4 0 8 -7 8 -15 0
-8 7 -15 16 -15 8 0 12 -4 9 -10 -3 -5 0 -10 7 -10 7 0 27 -14 45 -30 18 -17
36 -30 41 -30 4 0 18 -9 30 -20 12 -12 22 -18 22 -15 0 4 13 -3 29 -14 15 -11
31 -18 35 -14 3 3 6 2 6 -3 0 -6 16 -16 35 -24 19 -8 35 -17 35 -22 0 -4 6 -8
13 -8 8 0 22 -9 32 -20 10 -11 24 -20 30 -20 16 0 81 -71 89 -98 4 -10 2 -31
-3 -45 -14 -36 -78 -97 -104 -98 -44 -3 -65 -6 -76 -13 -6 -4 -11 -2 -11 4 0
6 -11 8 -24 6 -13 -2 -27 -2 -30 1 -3 4 -21 7 -38 8 -42 3 -90 15 -105 28 -7
5 -13 7 -13 4 0 -4 -19 1 -42 9 -24 9 -49 17 -56 18 -7 1 -17 7 -23 13 -10 10
-58 6 -60 -6 -6 -42 -2 -235 6 -241 13 -11 132 -49 176 -56 83 -14 147 -19
192 -14 26 3 47 2 47 -2 0 -5 8 -4 19 1 10 6 21 8 24 5 3 -3 11 -3 18 2 6 4
28 8 48 9 20 2 56 10 81 19 25 9 49 18 55 19 5 1 15 9 22 17 7 8 13 11 13 5 0
-5 27 19 60 53 33 35 58 68 54 73 -3 5 0 9 6 9 6 0 8 5 5 10 -3 6 -2 10 3 10
12 0 13 10 17 144 4 109 2 122 -20 166 -22 43 -115 151 -115 133 0 -4 -4 -3
-8 2 -8 11 -33 27 -79 51 -18 9 -33 20 -33 25 0 5 -4 8 -8 7 -10 -4 -105 44
-114 57 -4 5 -8 7 -8 3 0 -7 -59 29 -87 52 -7 5 -15 10 -19 10 -7 0 -42 42
-41 50 0 3 -5 15 -12 28 -6 12 -8 22 -3 22 5 0 8 11 6 25 -1 14 4 31 11 39 8
7 12 16 9 19 -9 9 71 41 106 42 20 1 41 4 47 8 6 4 14 3 17 -1 3 -5 19 -9 35
-10 16 0 38 -5 49 -11 11 -6 22 -8 25 -4 4 3 13 0 22 -7 8 -7 15 -10 15 -6 0
3 16 0 35 -9 25 -10 34 -11 28 -2 -5 9 -3 9 9 0 8 -7 18 -9 22 -5 4 4 11 7 14
8 23 3 41 19 47 42 4 15 11 29 16 32 4 3 10 15 12 25 2 11 8 30 15 42 19 35
14 50 -20 64 -18 8 -36 13 -40 11 -5 -1 -8 2 -8 8 0 6 -10 10 -23 10 -13 0
-27 3 -31 7 -3 4 -14 8 -24 10 -38 7 -68 12 -85 12 -12 1 -16 5 -11 14 5 8 2
8 -9 -2 -9 -7 -17 -9 -17 -4 0 5 -52 9 -115 9 -63 -1 -115 -4 -115 -8z"/>
<path d="M1759 4543 c-3 -10 -3 -286 -2 -613 2 -327 3 -602 3 -610 -1 -50 1
-64 6 -69 7 -8 464 -9 464 -1 0 3 12 5 28 6 30 1 113 11 152 19 14 3 26 9 28
15 2 6 8 7 13 4 6 -3 16 0 24 6 8 7 15 9 15 5 0 -5 10 0 22 11 14 12 18 14 13
4 -4 -8 3 -5 17 8 13 12 28 19 31 15 4 -3 7 -1 7 5 0 7 7 12 15 12 8 0 15 5
15 10 0 6 7 10 16 10 8 0 12 5 9 10 -3 6 0 10 7 10 7 0 22 11 32 25 10 13 22
22 27 19 5 -3 9 1 9 9 0 8 9 22 20 32 11 10 20 24 20 30 0 7 6 18 14 24 8 7
18 26 21 42 4 16 11 29 16 29 6 0 7 5 4 10 -3 6 -3 16 2 23 8 12 12 28 15 60
1 9 5 17 8 17 9 0 21 290 12 305 -4 6 -8 30 -9 54 -2 24 -8 49 -13 56 -5 6 -7
15 -4 18 6 6 -42 112 -61 134 -5 7 -26 33 -45 58 -19 25 -41 45 -48 45 -7 0
-11 4 -8 9 3 5 -9 16 -27 25 -17 8 -27 16 -22 16 11 0 -26 23 -65 40 -14 6
-34 14 -45 19 -30 14 -57 22 -85 27 -14 3 -32 7 -40 11 -27 11 -73 14 -341 19
-253 6 -266 5 -270 -13z m569 -237 c60 -10 182 -124 182 -170 0 -11 5 -15 13
-10 6 4 9 4 6 0 -3 -3 -1 -30 6 -59 15 -65 12 -291 -4 -332 -7 -16 -12 -32
-13 -35 0 -3 -8 -23 -18 -45 -20 -43 -83 -108 -125 -127 -14 -6 -25 -15 -25
-19 0 -4 -8 -6 -17 -4 -10 1 -23 -2 -30 -7 -6 -5 -50 -10 -96 -11 -47 -1 -83
-5 -81 -8 4 -7 -55 -10 -76 -4 -16 5 -22 85 -6 85 5 0 3 7 -4 15 -7 8 -8 15
-3 15 12 0 14 38 2 45 -5 4 -6 11 -3 17 10 16 12 78 2 84 -4 3 -5 11 -1 17 4
7 9 118 10 247 1 129 2 253 2 276 l1 41 123 -3 c67 -2 137 -5 155 -8z"/>
<path d="M3119 4548 c-4 -50 -3 -1301 1 -1308 3 -4 19 -7 35 -6 17 1 38 -2 49
-7 13 -6 16 -6 12 2 -4 7 2 11 16 11 56 -1 403 8 403 10 0 1 12 4 28 6 15 2
39 6 55 8 15 2 28 5 30 6 1 2 5 3 10 5 4 1 21 5 37 10 17 5 45 16 63 27 17 10
33 17 35 17 7 -3 57 26 57 33 0 4 6 8 13 8 7 0 37 23 66 50 29 28 50 50 46 50
-5 0 1 8 12 18 21 17 68 102 57 102 -3 0 2 7 10 16 9 8 14 20 11 25 -4 5 -2 9
2 9 5 0 10 14 11 32 2 18 6 35 10 38 11 8 16 66 16 210 0 133 -7 194 -25 216
-5 6 -6 13 -3 16 7 7 -46 117 -68 142 -10 11 -18 23 -18 28 0 4 -22 29 -50 55
-64 62 -77 73 -88 73 -5 0 -15 7 -22 15 -7 8 -21 15 -31 15 -9 0 -24 6 -31 13
-13 13 -43 23 -101 32 -16 3 -34 8 -40 12 -18 11 -53 13 -339 19 -220 5 -268
4 -269 -8z m549 -237 c1 -1 4 -1 7 -1 22 -2 100 -45 122 -68 64 -67 99 -124
88 -142 -3 -5 -1 -10 5 -12 5 -1 12 -39 16 -83 11 -138 11 -175 0 -175 -6 0
-4 -5 4 -10 8 -5 10 -10 4 -10 -5 0 -10 -17 -11 -38 0 -21 -11 -58 -23 -83
-13 -24 -22 -45 -21 -47 4 -7 -25 -29 -33 -24 -5 3 -6 0 -2 -6 3 -6 0 -16 -8
-24 -26 -25 -56 -48 -63 -48 -3 0 -12 -8 -20 -17 -8 -10 -12 -13 -9 -7 3 6
-11 3 -32 -7 -22 -11 -66 -20 -107 -21 -39 -2 -76 -7 -83 -11 -6 -5 -12 -4
-12 1 0 5 -11 8 -25 7 -58 -7 -60 -3 -59 108 0 59 -4 108 -10 116 -7 9 -7 12
-1 9 7 -4 11 81 12 255 1 144 2 280 3 302 l0 41 128 -2 c70 -1 128 -2 130 -3z"/>
<path d="M5501 3913 c0 -357 2 -656 5 -666 3 -9 10 -14 16 -11 5 3 56 8 111 9
56 2 104 3 107 4 3 1 5 199 5 441 0 243 2 448 5 456 5 14 8 14 20 -2 8 -9 14
-19 13 -20 -5 -8 10 -64 17 -64 5 0 7 -11 5 -25 -1 -14 1 -25 5 -25 6 0 19
-45 20 -65 0 -3 7 -19 15 -35 9 -17 13 -35 10 -39 -3 -5 -1 -11 5 -13 5 -1 10
-18 12 -35 1 -18 6 -33 10 -33 4 0 7 -3 6 -7 -1 -5 5 -28 12 -53 8 -25 14 -47
15 -50 4 -20 59 -187 63 -195 4 -5 5 -18 4 -27 -2 -10 2 -18 8 -18 6 0 9 -4 6
-8 -3 -5 6 -39 19 -75 13 -37 22 -67 19 -67 -2 0 6 -10 18 -22 21 -21 33 -23
136 -24 61 0 116 3 122 6 5 3 11 15 13 25 2 11 9 33 15 48 7 16 12 34 12 41 0
6 5 17 12 24 7 7 9 12 6 12 -4 0 5 33 18 73 14 39 27 79 29 87 2 8 4 17 5 20
1 3 2 8 1 13 0 4 4 7 9 7 5 0 9 3 8 8 -4 18 15 82 25 82 6 0 8 3 4 6 -3 4 0
22 8 40 8 19 11 34 8 34 -3 0 -1 6 5 13 6 6 11 15 11 20 1 4 1 8 2 10 0 1 2 9
4 17 2 8 14 47 28 87 14 40 22 74 19 77 -3 4 0 6 6 6 6 0 9 7 6 15 -4 8 -1 15
6 15 7 0 10 6 7 14 -3 7 -1 18 3 22 5 5 11 18 13 29 8 38 29 86 36 80 3 -4 7
-49 7 -100 1 -51 4 -101 7 -110 4 -9 3 -14 -1 -11 -9 5 -7 -72 2 -81 3 -3 1
-12 -5 -19 -7 -8 -7 -14 1 -19 6 -4 7 -13 1 -23 -5 -9 -5 -26 -1 -37 4 -11 4
-29 0 -41 -5 -11 -4 -27 0 -34 5 -8 4 -22 -1 -32 -5 -10 -6 -18 -1 -18 10 0 9
-101 -1 -117 -4 -7 -3 -14 3 -18 5 -3 10 -11 10 -16 0 -6 -6 -7 -12 -3 -10 6
-10 4 -2 -7 6 -8 10 -39 10 -69 -1 -30 4 -58 9 -62 7 -5 7 -8 0 -8 -7 0 -9
-20 -5 -52 l5 -53 118 -2 c70 0 120 3 123 9 4 6 6 33 5 62 -1 28 -3 319 -4
646 l-2 595 -170 2 c-93 1 -180 0 -191 -2 -15 -3 -25 -18 -34 -50 -7 -25 -17
-45 -22 -45 -5 0 -7 -4 -3 -10 3 -5 -2 -33 -12 -62 -10 -29 -16 -56 -15 -60 1
-5 -3 -8 -8 -8 -6 0 -10 -11 -10 -23 0 -13 -3 -27 -7 -31 -4 -3 -8 -16 -10
-28 -2 -12 -8 -27 -13 -33 -5 -7 -8 -14 -5 -17 3 -3 -4 -26 -15 -52 -11 -26
-19 -50 -18 -54 1 -8 -10 -40 -23 -65 -6 -11 -8 -21 -5 -24 3 -3 0 -15 -6 -27
-7 -11 -13 -24 -14 -28 -1 -5 -2 -9 -3 -10 -2 -2 -5 -14 -7 -28 -2 -13 -8 -27
-12 -30 -4 -3 -8 -12 -10 -20 -6 -33 -67 -205 -74 -208 -4 -2 -5 -9 -2 -17 7
-18 -16 -31 -26 -15 -5 8 -23 59 -41 114 -17 56 -36 106 -40 112 -5 6 -6 13
-4 16 3 3 -3 29 -15 57 -11 28 -19 55 -18 59 1 4 -3 17 -10 30 -7 12 -10 22
-6 22 3 0 1 7 -6 15 -7 8 -9 15 -5 15 4 0 2 7 -5 15 -7 8 -10 15 -6 15 3 0 1
12 -5 28 -6 15 -13 38 -16 52 -2 14 -8 27 -14 28 -5 2 -6 8 -3 14 4 5 2 20 -4
31 -9 18 -44 129 -47 147 0 3 -4 11 -8 18 -5 6 -6 12 -2 12 3 0 1 9 -5 21 -11
19 -14 31 -27 89 -3 14 -11 28 -17 32 -6 4 -93 8 -193 8 l-182 0 0 -647z"/>
<path d="M241 3192 c1 -4 0 -9 -1 -12 -4 -10 -6 -565 -2 -578 3 -8 21 4 49 33
25 25 47 45 50 45 6 0 33 27 33 33 0 3 23 27 50 54 28 28 63 67 79 89 28 36
28 39 13 64 -9 14 -33 42 -54 63 -20 20 -34 37 -30 37 4 0 -5 8 -21 18 -15 10
-24 22 -20 25 3 4 2 7 -4 7 -6 0 -27 16 -46 35 -19 19 -32 35 -28 35 3 0 -6 8
-22 18 -15 10 -25 21 -22 24 3 3 -1 8 -9 11 -9 4 -15 3 -15 -1z"/>
<path d="M1723 3023 c-7 -3 -13 -11 -13 -19 0 -9 -5 -12 -12 -8 -7 4 -10 4 -6
0 4 -5 3 -19 -2 -32 -23 -59 -36 -169 -22 -178 19 -12 40 6 46 39 7 38 14 44
51 51 24 4 25 2 25 -40 0 -25 4 -47 10 -51 14 -9 49 17 43 32 -3 7 0 20 7 28
7 8 10 15 7 15 -3 0 0 21 7 48 11 42 13 108 4 118 -2 2 -14 -3 -26 -12 -14
-10 -22 -26 -22 -45 0 -18 -4 -28 -10 -24 -5 3 -10 2 -10 -2 0 -5 -11 -10 -25
-11 -26 -2 -29 5 -26 60 1 29 -7 38 -26 31z"/>
<path d="M2344 3022 c-24 -16 -39 -62 -46 -139 -1 -7 -4 -13 -7 -13 -4 0 -6
-19 -6 -42 0 -28 5 -43 13 -42 6 1 18 2 26 3 16 1 25 41 42 177 6 50 -2 69
-22 56z"/>
<path d="M2576 3015 c-11 -8 -21 -23 -22 -32 -4 -29 -12 -62 -19 -74 -4 -6 -8
-37 -9 -70 -2 -49 0 -59 13 -57 22 4 37 26 46 68 9 44 28 71 41 62 11 -7 11
-26 -1 -97 -4 -22 -4 -37 1 -33 4 4 13 3 21 -4 11 -9 15 -7 20 10 3 12 9 22
13 22 4 0 8 33 9 74 l2 74 -35 6 c-26 5 -37 13 -45 36 -12 34 -10 34 -35 15z"/>
<path d="M3565 3014 c-10 -8 -15 -14 -11 -14 5 0 2 -7 -5 -16 -13 -15 -17 -29
-21 -66 -1 -10 -5 -18 -8 -18 -3 0 -6 -15 -7 -32 -1 -18 -3 -43 -4 -56 -1 -13
1 -25 4 -28 7 -7 47 5 46 14 -1 4 0 10 1 15 5 14 8 27 10 45 1 9 6 1 12 -18 9
-35 32 -60 53 -60 6 0 21 20 33 44 27 53 53 80 45 44 -3 -13 -9 -27 -12 -33
-14 -22 -6 -50 16 -53 19 -3 34 16 38 48 0 3 4 10 8 17 4 6 4 18 1 27 -3 9 -2
16 3 16 5 0 8 15 8 33 0 17 4 42 9 55 14 34 -12 57 -46 41 -23 -10 -76 -94
-70 -112 1 -4 -5 -10 -13 -13 -8 -3 -13 -10 -10 -14 3 -5 0 -12 -6 -16 -8 -4
-9 -3 -5 4 4 7 3 12 -1 12 -8 0 -14 39 -16 101 -1 35 -27 51 -52 33z"/>
<path d="M5772 3013 c-7 -6 -18 -15 -26 -20 -26 -15 -24 -75 3 -102 11 -11 24
-28 30 -39 9 -17 7 -21 -17 -28 -15 -4 -34 -8 -44 -8 -27 -2 -32 -15 -15 -34
23 -25 117 -17 117 9 0 6 4 8 9 5 5 -3 12 2 16 12 18 40 14 58 -21 95 -39 41
-39 67 0 67 29 0 50 28 32 45 -15 14 -70 14 -84 -2z"/>
<path d="M6137 3012 c-10 -10 -14 -22 -10 -25 3 -4 0 -7 -7 -7 -7 0 -11 -3 -8
-6 4 -3 2 -20 -4 -37 -9 -29 -14 -59 -17 -95 -1 -7 -5 -11 -9 -8 -4 2 -7 -8
-6 -22 1 -22 6 -27 28 -28 14 -1 24 1 21 4 -3 3 0 11 6 18 6 7 13 28 16 46 3
18 8 35 13 38 4 3 6 13 4 24 -1 10 2 29 8 41 11 24 4 75 -11 75 -4 0 -15 -8
-24 -18z"/>
<path d="M6576 3013 c-8 -20 9 -32 35 -26 19 5 21 23 4 35 -17 13 -33 9 -39
-9z"/>
<path d="M2432 2982 c-12 -12 -22 -29 -22 -37 0 -8 -3 -15 -7 -15 -10 0 -9
-122 1 -138 4 -7 24 -12 46 -10 34 2 37 4 29 20 -5 10 -14 18 -20 18 -13 0 -7
95 6 95 21 2 55 17 55 25 0 5 -13 16 -29 25 -16 8 -31 20 -33 27 -3 8 -12 4
-26 -10z"/>
<path d="M5518 2973 c-31 -36 -43 -167 -18 -194 18 -19 51 -19 75 1 16 13 16
15 -1 30 -29 23 -29 63 0 98 31 36 32 44 8 65 -24 22 -45 21 -64 0z"/>
<path d="M6428 2976 c-10 -7 -18 -21 -18 -30 0 -10 -3 -15 -7 -13 -10 6 -10
-124 0 -139 4 -7 17 -12 29 -12 13 0 28 -1 33 -2 35 -8 44 24 12 42 -10 5 -15
13 -12 19 4 5 1 9 -6 9 -8 0 -9 3 0 13 6 8 8 16 5 19 -2 3 9 17 25 31 l30 25
-22 26 c-25 29 -43 32 -69 12z"/>
<path d="M1950 2949 c0 -5 -4 -8 -9 -5 -17 11 -33 -24 -37 -83 -4 -56 -2 -62
22 -78 29 -19 74 -26 74 -11 0 5 4 7 9 3 6 -3 15 3 21 14 9 18 7 21 -14 27
-14 3 -29 3 -34 0 -6 -3 -12 1 -16 9 -5 13 5 20 27 16 4 0 7 3 7 7 0 5 11 14
25 20 21 10 25 19 25 52 l0 40 -50 0 c-29 0 -50 -5 -50 -11z m36 -54 c-9 -9
-16 -13 -16 -8 0 12 22 34 28 28 2 -2 -3 -11 -12 -20z"/>
<path d="M2116 2942 c-9 -11 -19 -32 -22 -48 -3 -16 -10 -34 -16 -41 -7 -9 -7
-13 1 -13 7 0 10 -4 6 -9 -3 -5 0 -13 6 -16 5 -4 8 -13 5 -20 -5 -14 34 -31
64 -29 38 2 70 28 76 61 3 18 9 33 13 33 4 0 7 21 6 48 l0 47 -61 3 c-49 2
-63 -1 -78 -16z m60 -64 c-4 -48 -5 -48 -22 -48 -8 0 -12 5 -9 10 3 6 0 10 -7
11 -10 0 -10 2 0 6 6 2 10 8 7 13 -4 7 20 40 30 40 2 0 2 -15 1 -32z"/>
<path d="M2773 2948 c-24 -12 -34 -35 -39 -93 -4 -45 1 -54 34 -77 30 -20 85
-6 80 21 -2 9 -8 16 -14 16 -17 0 -39 28 -39 50 0 22 27 51 56 60 11 4 19 13
19 21 0 17 -63 18 -97 2z"/>
<path d="M2937 2949 c-24 -14 -39 -54 -42 -110 -3 -45 -1 -47 31 -57 19 -5 34
-6 34 -1 0 4 7 6 15 3 24 -10 59 3 73 27 10 15 10 19 1 14 -8 -6 -10 -4 -3 6
5 8 10 25 12 38 2 14 7 32 13 42 15 28 -15 49 -69 49 -26 0 -55 -5 -65 -11z
m57 -76 c-7 -45 -7 -45 -28 -37 -18 7 -22 24 -5 24 5 0 7 5 4 10 -10 16 2 40
20 40 12 0 14 -8 9 -37z"/>
<path d="M3120 2940 c0 -11 -3 -20 -7 -20 -5 0 -9 -19 -10 -42 -2 -23 -6 -44
-10 -47 -5 -3 -8 -15 -9 -26 -1 -29 46 -33 53 -5 3 11 9 18 13 15 4 -2 7 3 6
13 -1 21 40 92 54 92 5 0 10 6 10 14 0 8 6 17 13 19 6 3 -1 6 -16 6 -16 1 -38
-4 -49 -10 -15 -8 -19 -8 -14 0 4 7 -1 11 -13 11 -14 0 -21 -6 -21 -20z"/>
<path d="M3256 2929 c-32 -38 -36 -109 -7 -140 18 -20 81 -35 81 -19 0 4 10
10 22 13 18 5 19 8 9 21 -8 9 -16 14 -20 12 -3 -2 -17 2 -31 10 -14 7 -19 13
-12 14 6 0 13 -1 15 -2 1 -1 13 5 27 12 14 8 29 13 33 12 5 -1 6 2 3 7 -4 5
-2 11 3 13 10 3 14 21 12 56 -1 20 -6 22 -55 22 -48 0 -57 -3 -80 -31z m67
-30 c-8 -8 -13 -7 -18 2 -5 8 -4 10 3 5 7 -4 12 -2 12 5 0 7 3 9 7 6 4 -4 2
-12 -4 -18z"/>
<path d="M3847 2953 c-9 -2 -15 -9 -12 -14 4 -5 2 -9 -4 -9 -22 0 -36 -128
-17 -148 3 -2 31 -4 63 -3 77 1 93 20 93 106 0 48 -4 64 -16 69 -17 7 -79 6
-107 -1z m63 -62 c0 -11 -5 -32 -10 -47 -10 -24 -13 -26 -26 -13 -11 12 -12
21 -3 47 12 35 39 44 39 13z"/>
<path d="M4024 2933 c-4 -16 -9 -39 -10 -53 -1 -14 -5 -40 -8 -57 -2 -18 -1
-35 4 -38 14 -9 38 6 45 28 9 27 23 85 24 100 2 12 31 8 32 -5 1 -7 1 -39 1
-70 0 -32 4 -58 10 -58 16 0 39 28 41 50 1 11 4 20 8 20 6 0 6 69 0 103 -2 12
-76 8 -89 -5 -9 -9 -12 -9 -12 0 0 25 -38 12 -46 -15z"/>
<path d="M4235 2936 c-20 -31 -30 -123 -16 -140 7 -9 31 -14 62 -14 57 -1 88
21 90 63 1 25 5 43 8 48 2 1 4 13 7 26 6 33 -11 42 -79 39 -47 -1 -61 -5 -72
-22z m82 -33 c-4 -3 -2 -12 3 -19 8 -8 6 -16 -4 -27 -8 -8 -12 -17 -9 -21 4
-3 -3 -6 -14 -6 -25 0 -39 30 -21 42 7 4 9 8 4 8 -15 0 16 30 32 30 8 0 12 -3
9 -7z"/>
<path d="M4440 2939 c-6 -10 -10 -34 -10 -53 0 -19 -9 -52 -20 -71 -28 -49
-36 -105 -16 -105 8 0 22 -7 30 -16 9 -9 16 -11 16 -4 0 7 5 8 17 2 11 -7 21
-5 31 4 7 8 18 12 23 9 5 -4 9 -1 9 5 0 6 4 9 9 6 10 -7 21 17 21 46 0 19 -25
52 -42 54 -4 1 -10 2 -13 3 -2 0 13 17 33 37 20 20 36 40 35 45 -2 5 2 9 8 9
6 0 9 10 7 23 -3 20 -9 22 -66 23 -51 1 -64 -2 -72 -17z m64 -44 c3 -9 0 -15
-9 -15 -16 0 -27 14 -18 24 10 10 21 7 27 -9z m-10 -141 c2 -6 -6 -16 -19 -22
-18 -9 -26 -8 -36 4 -10 13 -10 17 1 24 19 12 49 8 54 -6z"/>
<path d="M4625 2940 c-10 -11 -14 -20 -9 -20 5 0 3 -4 -5 -9 -7 -5 -16 -31
-18 -58 -5 -46 -3 -50 23 -63 16 -7 31 -14 34 -14 3 -1 11 -5 19 -10 8 -5 16
-5 20 1 3 5 14 13 25 16 15 6 16 10 6 23 -7 8 -19 13 -25 10 -7 -2 -18 1 -24
7 -13 13 -15 28 -3 26 44 -7 92 34 85 74 -8 41 -96 53 -128 17z m80 -38 c-9
-9 -35 -11 -35 -3 0 14 12 20 26 14 8 -3 12 -8 9 -11z"/>
<path d="M4804 2938 c-5 -13 -9 -31 -10 -40 -1 -10 -3 -19 -4 -20 -1 -2 -4
-24 -5 -50 -2 -51 9 -61 36 -30 18 21 16 17 25 70 7 47 20 61 37 42 9 -10 9
-11 -3 -5 -12 7 -13 6 -4 -6 9 -12 11 -33 4 -41 -6 -9 -4 -58 3 -58 4 0 6 -4
3 -9 -3 -4 5 -8 17 -7 17 1 26 13 42 58 26 72 41 89 47 54 3 -14 2 -26 -1 -26
-10 0 0 -79 10 -86 16 -10 42 13 47 42 3 16 5 51 6 79 l1 49 -38 4 c-21 2 -44
-1 -50 -7 -8 -6 -18 -6 -27 -1 -26 17 -78 12 -83 -7 -4 -17 -5 -17 -6 0 -2 25
-38 21 -47 -5z"/>
<path d="M5134 2942 c-76 -64 -58 -176 29 -178 20 0 37 3 37 8 0 5 5 6 10 3 6
-3 10 0 10 7 0 18 -15 39 -26 37 -5 -1 -17 1 -26 5 -21 10 -14 28 7 19 8 -3
15 0 15 7 0 6 4 9 9 6 5 -3 20 6 34 20 20 20 24 30 18 52 -6 24 -13 27 -52 29
-30 2 -50 -3 -65 -15z m60 -37 c-7 -17 -20 -20 -28 -6 -4 5 0 12 6 14 23 9 28
7 22 -8z"/>
<path d="M5303 2933 c-17 -47 -28 -107 -25 -130 4 -26 40 -32 47 -8 3 8 8 23
11 33 4 9 8 26 9 37 8 55 20 70 40 52 13 -12 9 -70 -5 -98 -11 -19 0 -35 24
-34 22 0 55 75 33 75 -8 0 -8 3 -2 8 12 8 13 61 2 80 -10 16 -77 16 -77 0 0
-9 -3 -9 -12 0 -19 19 -35 14 -45 -15z"/>
<path d="M5916 2934 c-18 -26 -29 -97 -19 -133 6 -24 83 -51 83 -29 0 4 6 8
14 8 25 0 56 55 56 100 0 65 -13 80 -68 80 -39 -1 -50 -5 -66 -26z m80 -61
c-3 -31 -18 -52 -38 -53 -21 0 -9 77 15 92 19 12 27 -2 23 -39z"/>
<path d="M6224 2951 c4 -6 1 -11 -6 -11 -8 0 -15 -8 -16 -17 -1 -10 -4 -43 -8
-74 -6 -55 -5 -57 23 -65 15 -5 47 -8 70 -6 55 4 60 12 79 139 6 39 4 43 -15
43 -25 0 -47 -34 -50 -78 0 -11 -9 -29 -20 -41 -16 -18 -20 -19 -31 -6 -7 9
-8 15 -2 15 6 0 9 22 9 52 -2 43 -6 53 -21 56 -11 3 -16 0 -12 -7z"/>
<path d="M6561 2947 c-6 -8 -8 -17 -4 -20 3 -4 2 -7 -3 -7 -8 0 -14 -22 -17
-67 0 -7 -3 -13 -7 -13 -8 0 -5 -49 3 -57 3 -3 14 -2 25 1 20 7 34 40 36 83 1
12 4 25 9 29 4 4 7 20 7 36 0 21 -5 28 -19 28 -10 0 -24 -6 -30 -13z"/>
<path d="M6666 2931 c-24 -26 -36 -72 -26 -103 1 -5 3 -13 4 -19 0 -7 13 -21
27 -31 24 -18 29 -18 60 -5 22 9 43 30 57 57 13 23 19 39 13 36 -7 -5 -8 0 -3
15 6 15 4 33 -5 51 -13 24 -20 28 -57 28 -34 0 -48 -6 -70 -29z m70 -58 c-1
-28 -7 -39 -20 -41 -11 -3 -16 0 -12 7 4 6 2 11 -4 11 -7 0 -8 5 -3 13 8 12 9
17 12 37 0 6 7 10 15 10 10 0 14 -11 12 -37z"/>
<path d="M6872 2952 c-17 -11 -45 -106 -44 -146 1 -26 7 -29 36 -22 18 4 24
11 19 23 -4 10 -2 14 4 10 5 -3 9 3 8 16 -1 12 5 37 14 55 13 29 17 31 27 17
11 -15 6 -68 -10 -93 -4 -6 2 -16 13 -21 24 -13 44 -14 37 -2 -3 5 0 13 7 19
7 6 12 32 11 64 -2 94 2 88 -56 88 -29 0 -59 -4 -66 -8z"/>
</g>
</svg>
